<?xml version="1.0" standalone="no"?>
<!DOCTYPE svg PUBLIC "-//W3C//DTD SVG 20010904//EN"
 "http://www.w3.org/TR/2001/REC-SVG-20010904/DTD/svg10.dtd">
<svg version="1.0" xmlns="http://www.w3.org/2000/svg"
 width="500.000000pt" height="500.000000pt" viewBox="0 0 500.000000 500.000000"
 preserveAspectRatio="xMidYMid meet">
<metadata>
Created by potrace 1.14, written by Peter Selinger 2001-2017
</metadata>
<g transform="translate(0.000000,500.000000) scale(0.100000,-0.100000)"
fill="#000000" stroke="none">
<path d="M253 4990 c-95 -19 -178 -82 -220 -168 l-28 -57 0 -2261 0 -2261 35
-69 c40 -78 104 -134 179 -156 38 -11 447 -13 2296 -13 l2250 0 45 22 c74 37
117 79 152 151 l33 67 0 2255 0 2255 -33 67 c-36 73 -79 114 -159 151 l-48 22
-2230 1 c-1227 1 -2249 -2 -2272 -6z m1482 -455 c213 -32 473 -137 635 -256
117 -86 284 -257 352 -359 31 -47 76 -125 101 -175 47 -95 103 -242 95 -250
-4 -5 -2011 -9 -2575 -6 l-203 1 0 28 c0 68 113 308 208 442 61 87 206 229
317 312 163 122 419 229 625 261 126 20 322 20 445 2z m3125 -1210 l0 -105
-2360 0 -2360 0 0 105 0 105 2360 0 2360 0 0 -105z m0 -267 l0 -107 -477 3
c-263 2 -502 4 -530 5 -48 1 -53 3 -53 24 0 12 -7 35 -15 51 -8 15 -15 34 -15
42 0 40 -126 62 -160 28 -18 -18 -19 -25 -9 -78 6 -32 9 -60 7 -62 -8 -7 -503
-5 -505 3 -2 4 -13 26 -26 48 -33 58 -78 85 -143 85 -68 0 -100 -13 -140 -56
l-33 -34 -34 30 c-49 43 -121 72 -193 78 -104 8 -242 -43 -353 -131 l-43 -34
-257 5 c-271 5 -291 8 -291 53 0 25 -44 46 -121 58 -83 14 -400 14 -509 1
-135 -17 -157 -25 -182 -69 l-22 -39 -273 -4 c-151 -2 -289 -2 -308 0 l-35 4
0 104 0 105 2360 -3 2360 -2 0 -108z m-2275 13 c13 -5 -4 -10 -55 -13 -76 -5
-149 -30 -222 -75 -43 -27 -103 -33 -78 -9 22 21 154 85 198 95 46 11 131 12
157 2z m1098 -3 c-29 -14 -33 -28 -23 -72 4 -20 5 -36 1 -36 -9 0 -30 108 -23
115 3 3 19 5 36 4 29 0 30 -1 9 -11z m-748 -24 c-33 -10 -61 -27 -81 -49 -17
-19 -36 -35 -43 -35 -22 0 -11 32 23 66 31 31 39 34 93 33 l58 0 -50 -15z
m-1428 -20 c14 -6 -74 -8 -228 -6 -262 3 -392 -10 -429 -43 -9 -8 -24 -15 -34
-15 -14 0 -15 4 -6 20 15 28 46 38 143 49 100 12 524 7 554 -5z m-734 -176
l24 -53 -31 -19 c-17 -10 -54 -33 -81 -51 -49 -31 -55 -33 -198 -40 -81 -4
-192 -4 -247 0 l-100 7 0 104 0 104 304 0 305 0 24 -52z m40 25 c7 -39 1 -40
-11 -4 -6 17 -7 31 -3 31 5 0 11 -12 14 -27z m152 -79 l0 -99 -38 -3 c-35 -3
-38 -2 -32 18 4 12 1 27 -5 36 -18 21 -5 80 25 120 41 54 50 41 50 -72z m65
17 c0 -91 -5 -121 -21 -121 -5 0 -9 47 -9 105 0 87 3 105 15 105 12 0 15 -17
15 -89z m1025 39 c-39 -58 -52 -108 -36 -139 l12 -21 -243 -2 c-134 -1 -263
-2 -288 0 -25 1 -107 3 -182 4 l-138 3 0 102 0 103 454 0 455 0 -34 -50z m89
-7 c-26 -31 -53 -72 -61 -90 -16 -40 -33 -43 -33 -5 0 52 77 152 117 152 22 0
20 -4 -23 -57z m535 31 c25 -32 61 -126 61 -159 l0 -25 -135 0 -135 0 0 105 0
105 94 0 c90 0 96 -1 115 -26z m277 -39 c28 -136 28 -145 2 -145 -20 0 -29 12
-60 92 -20 50 -34 98 -31 105 4 9 18 13 41 11 36 -3 36 -4 48 -63z m58 -27
c18 -86 21 -133 7 -108 -4 8 -14 51 -21 94 -6 44 -15 87 -17 95 -4 11 -3 13 5
6 6 -5 18 -45 26 -87z m298 67 c-11 -14 -23 -49 -27 -78 -13 -112 -10 -107
-71 -107 -60 0 -54 -9 -73 111 -18 107 -25 99 90 99 l100 0 -19 -25z m312 8
c2 -10 6 -56 8 -103 l3 -85 -56 -3 c-65 -3 -69 2 -69 96 0 28 -4 52 -10 52 -5
0 -10 6 -10 14 0 8 -7 22 -16 30 -14 15 -8 16 65 16 67 0 80 -3 85 -17z m60
-35 c9 -78 7 -164 -3 -152 -11 12 -22 204 -12 204 5 0 11 -24 15 -52z m396 49
c0 -1 -24 -47 -52 -102 l-53 -100 -76 -3 -76 -3 -7 47 c-3 26 -6 73 -6 105 l0
59 135 0 c74 0 135 -1 135 -3z m780 -102 l0 -105 -170 0 -171 0 -72 50 c-86
58 -172 100 -207 100 -32 0 -45 10 -52 38 l-6 22 339 0 339 0 0 -105z m-710
81 c0 -2 -16 -33 -36 -68 -20 -34 -40 -73 -45 -86 -9 -23 -35 -39 -46 -28 -7
7 6 39 53 124 24 43 41 62 54 62 11 0 20 -2 20 -4z m-705 -16 c4 -6 -8 -10
-29 -10 -44 0 -62 -24 -72 -98 -6 -49 -18 -71 -31 -58 -9 8 16 148 29 163 12
15 94 18 103 3z m-1125 -91 c0 -60 -3 -80 -12 -76 -7 2 -13 9 -12 15 1 7 2 41
3 77 2 95 21 81 21 -16z m1960 20 c11 -6 8 -8 -12 -9 -16 0 -31 0 -35 -1 -5 0
-10 7 -11 16 -3 14 1 15 20 10 12 -4 30 -11 38 -16z m-2024 -95 c-7 -18 -45
-18 -52 -1 -6 17 12 66 34 91 16 17 17 16 20 -29 2 -26 1 -54 -2 -61z m538 19
c4 -13 3 -23 -2 -23 -5 0 -13 16 -16 36 -4 19 -9 43 -12 52 -6 23 22 -37 30
-65z m-1954 49 c0 -33 -68 -76 -112 -70 -20 3 -14 8 37 40 62 38 75 44 75 30z
m3395 -42 l29 -30 -47 0 c-52 0 -51 -1 -35 35 14 32 18 31 53 -5z m-3774 -157
c-69 -67 -81 -83 -81 -111 l0 -33 -77 3 -78 3 -37 85 c-20 47 -37 95 -37 108
l-1 22 196 0 196 0 -81 -77z m209 73 c0 -1 -39 -32 -86 -67 -48 -35 -101 -83
-119 -106 -33 -44 -45 -46 -45 -7 0 40 177 184 227 184 13 0 23 -2 23 -4z
m290 -106 l0 -110 -182 0 c-101 0 -189 4 -196 9 -10 6 23 34 112 95 68 48 130
94 137 102 7 9 31 14 70 14 l59 0 0 -110z m60 -1 c0 -71 -4 -108 -10 -104 -11
7 -14 198 -3 208 12 13 13 7 13 -104z m1228 4 l-3 -108 -32 -3 c-21 -2 -33 1
-33 9 0 6 -21 38 -47 70 -42 51 -53 59 -93 65 -47 7 -440 -2 -448 -11 -3 -2 8
-30 24 -62 20 -41 36 -60 54 -64 14 -4 -92 -6 -235 -6 l-260 2 0 50 0 49 40 9
c22 5 67 6 100 2 94 -11 105 -9 136 21 31 30 36 53 17 72 -9 9 76 12 385 12
l398 0 -3 -107z m63 0 c-3 -136 -21 -146 -21 -12 0 96 5 127 18 114 3 -2 4
-48 3 -102z m437 44 c-3 -35 -15 -84 -26 -110 l-21 -47 -120 0 -121 0 0 103
c0 57 3 107 7 110 3 4 69 7 146 7 l140 0 -5 -63z m61 -10 c-1 -80 -19 -141
-43 -145 -15 -3 -17 0 -12 14 17 45 36 131 36 167 0 23 4 36 10 32 6 -3 10
-34 9 -68z m175 64 c7 -11 36 -167 36 -194 0 -15 -7 -18 -42 -15 -37 3 -43 6
-40 23 2 11 4 59 5 108 1 75 4 87 19 87 9 0 19 -4 22 -9z m76 -104 c14 -101 8
-129 -9 -35 -19 112 -23 154 -13 138 5 -8 15 -55 22 -103z m200 89 c0 -48 -22
-181 -31 -191 -15 -15 -26 11 -43 105 -22 115 -23 110 29 110 41 0 45 -2 45
-24z m58 -81 c-6 -51 -16 -96 -24 -105 -12 -12 -14 -11 -14 12 0 36 20 181 27
191 15 24 19 -18 11 -98z m311 23 c-1 -115 -7 -132 -47 -136 -26 -3 -32 1 -36
20 -10 42 -23 183 -19 191 2 4 26 7 54 7 l49 0 -1 -82z m46 -127 c-15 -15 -16
-8 -10 84 9 136 19 151 23 31 2 -81 0 -102 -13 -115z m264 197 c0 -7 -21 -56
-47 -108 -36 -73 -52 -96 -69 -98 -27 -4 -27 -4 -11 124 l11 94 59 0 c40 0 58
-4 57 -12z m80 0 c-1 -24 -94 -202 -106 -206 -22 -6 -14 22 32 122 28 58 51
96 60 96 8 0 15 -6 14 -12z m382 -39 c113 -77 111 -70 38 -120 l-64 -44 -162
-3 c-142 -3 -163 -1 -163 12 0 9 21 59 47 111 l48 95 90 0 91 0 75 -51z m459
-59 l0 -110 -101 0 c-92 0 -101 2 -94 18 4 9 10 26 12 37 5 22 -36 102 -67
130 -11 10 -20 22 -20 27 0 4 61 8 135 8 l135 0 0 -110z m-1425 -35 c4 -53 3
-77 -3 -70 -10 10 -17 83 -14 134 3 42 9 18 17 -64z m-1370 25 c4 -6 -41 -10
-128 -10 -74 0 -168 -3 -210 -6 -53 -5 -77 -3 -77 4 0 16 35 19 232 21 109 0
179 -3 183 -9z m2494 -33 c8 -11 7 -18 -7 -29 -27 -24 -58 -38 -84 -38 -20 1
-18 5 22 40 51 44 53 45 69 27z m-4090 -159 c31 -28 96 -78 146 -110 l89 -58
-149 0 -150 0 -46 63 c-74 98 -100 145 -86 150 7 3 41 6 76 6 63 1 64 1 120
-51z m429 42 l62 0 0 -105 0 -105 -45 0 c-42 0 -46 2 -64 38 -21 41 -57 76
-134 132 -26 18 -47 38 -47 43 0 6 31 8 83 4 45 -4 110 -7 145 -7z m1337 -101
l0 -104 -344 -3 -344 -2 26 20 c14 11 33 40 42 65 16 42 16 47 1 80 -9 19 -14
40 -10 46 4 8 99 10 318 6 l311 -5 0 -103z m65 16 c0 -57 -4 -95 -10 -95 -11
0 -14 148 -4 174 12 30 14 16 14 -79z m1295 85 c4 -6 1 -18 -6 -26 -10 -12
-14 -12 -20 -2 -5 7 -9 19 -9 26 0 15 26 16 35 2z m685 4 c0 -3 -25 -30 -55
-60 -59 -59 -74 -92 -56 -130 l11 -24 -130 0 c-72 0 -130 3 -130 8 0 4 21 51
47 104 l46 97 126 4 c69 1 129 4 134 5 4 1 7 -1 7 -4z m130 -3 c0 -4 -17 -20
-37 -33 -21 -14 -64 -49 -96 -77 -57 -50 -77 -61 -77 -41 0 17 85 97 137 130
47 30 73 38 73 21z m450 -101 l0 -110 -282 0 c-171 0 -278 4 -272 9 5 5 77 55
159 110 l150 100 123 1 122 0 0 -110z m-3840 15 c0 -50 -4 -85 -10 -85 -6 0
-10 35 -10 85 0 50 4 85 10 85 6 0 10 -35 10 -85z m480 80 c0 -2 -24 -17 -52
-31 -43 -22 -70 -28 -148 -31 -107 -5 -138 6 -126 45 7 21 12 22 167 22 87 0
159 -2 159 -5z m1154 -6 c-13 -21 -89 -49 -134 -49 -56 0 -71 9 -63 38 5 21
11 22 105 22 70 0 97 -3 92 -11z m96 1 c0 -5 -18 -28 -39 -49 -47 -47 -124
-68 -193 -53 l-43 10 45 1 c72 2 117 19 157 60 36 36 73 52 73 31z m305 -61
c25 -75 30 -85 58 -116 l20 -23 -199 0 -199 1 30 21 c48 35 101 95 126 144
l24 45 59 -3 59 -3 22 -66z m230 44 c-9 -36 -22 -50 -35 -37 -14 14 8 64 28
64 10 0 12 -7 7 -27z m162 -5 c-3 -7 -5 -2 -5 12 0 14 2 19 5 13 2 -7 2 -19 0
-25z m219 6 c-10 -40 -36 -74 -57 -74 -22 0 -25 13 -5 29 8 6 19 25 26 41 16
38 45 41 36 4z m151 14 c-24 -57 -67 -166 -71 -180 -4 -12 -15 -18 -36 -18
-16 0 -30 2 -30 4 0 2 15 27 34 55 19 27 42 73 51 101 13 38 21 50 37 50 12 0
18 -5 15 -12z m80 0 c-40 -96 -81 -185 -88 -192 -5 -6 -11 -3 -14 6 -4 9 11
57 32 107 28 68 43 91 57 91 11 0 16 -5 13 -12z m-489 -50 c7 -29 25 -74 42
-100 l29 -48 -89 0 -89 0 29 48 c17 26 35 71 42 100 7 28 15 52 18 52 3 0 11
-24 18 -52z m-1850 16 c-2 -9 -24 -27 -49 -41 -66 -34 -151 -48 -234 -37 l-70
8 101 7 c90 6 109 10 170 42 79 41 87 43 82 21z m1899 -26 c-3 -8 -6 -5 -6 6
-1 11 2 17 5 13 3 -3 4 -12 1 -19z m313 -204 c16 -19 90 -55 100 -49 4 3 10
18 13 35 l7 30 485 0 485 0 0 -102 0 -103 -2082 -2 -2083 -2 -70 54 c-38 29
-92 76 -120 104 l-49 51 1651 0 c1483 0 1652 -2 1663 -16z"/>
</g>
</svg>
