<?xml version="1.0" standalone="no"?>
<!DOCTYPE svg PUBLIC "-//W3C//DTD SVG 20010904//EN"
 "http://www.w3.org/TR/2001/REC-SVG-20010904/DTD/svg10.dtd">
<svg version="1.0" xmlns="http://www.w3.org/2000/svg"
 width="600.000000pt" height="600.000000pt" viewBox="0 0 600.000000 600.000000"
 preserveAspectRatio="xMidYMid meet">
<metadata>
Created by potrace 1.14, written by Peter Selinger 2001-2017
</metadata>
<g transform="translate(0.000000,600.000000) scale(0.100000,-0.100000)"
fill="#000000" stroke="none">
<path d="M0 5982 c0 -9 75 -93 168 -185 152 -152 170 -167 202 -167 34 0 32 3
-150 185 -174 174 -220 209 -220 167z"/>
<path d="M5677 5711 c-208 -209 -286 -293 -281 -305 3 -9 11 -16 17 -16 19 0
587 574 587 592 0 11 -7 18 -18 18 -10 0 -140 -123 -305 -289z"/>
<path d="M412 5561 c2 -4 43 -45 91 -91 63 -60 91 -80 99 -72 8 8 -10 33 -63
91 -59 64 -80 81 -102 81 -16 0 -27 -4 -25 -9z"/>
<path d="M2139 3983 c-83 -42 -236 -199 -282 -292 -67 -134 -47 -228 61 -282
l53 -26 -78 -55 c-93 -66 -234 -212 -283 -293 -51 -86 -79 -178 -80 -259 0
-90 15 -138 62 -190 109 -125 317 -106 532 48 73 52 268 252 346 354 l55 72
18 -42 c28 -65 54 -88 99 -88 50 0 72 12 101 55 22 32 26 34 37 20 52 -63 154
-58 271 14 l47 30 6 -25 c17 -67 83 -83 139 -34 19 17 44 30 55 30 11 0 34 11
51 25 l30 26 3 -53 c3 -45 6 -53 23 -53 15 0 27 17 50 73 16 40 42 87 57 105
l27 32 0 -87 c1 -74 4 -91 21 -108 27 -27 44 -25 82 9 l32 29 28 -30 c25 -26
33 -30 65 -25 20 4 48 18 63 32 14 14 36 25 49 25 13 0 38 15 56 33 18 17 43
32 55 32 22 0 23 -3 21 -71 -3 -82 9 -100 58 -89 28 6 82 56 94 87 4 9 9 7 21
-8 54 -73 204 -47 317 56 50 45 38 52 -23 14 -144 -91 -228 -97 -252 -18 -11
37 2 51 57 58 95 13 132 63 63 86 -75 24 -168 -30 -181 -106 -12 -68 -82 -154
-100 -124 -4 6 -4 33 0 60 4 27 4 59 0 71 -6 19 -12 20 -47 15 -35 -6 -39 -4
-34 10 20 52 19 64 -7 64 -36 0 -51 -23 -44 -70 4 -33 1 -43 -16 -55 -37 -26
-47 -19 -47 33 -1 63 -20 87 -68 86 -56 -2 -79 -18 -111 -82 -32 -63 -64 -98
-81 -87 -7 4 -10 36 -9 85 3 89 -7 110 -54 110 -23 0 -41 -11 -74 -45 -38 -40
-43 -43 -43 -23 0 33 -14 51 -36 46 -15 -2 -20 -14 -22 -50 -2 -37 -9 -52 -29
-68 -37 -29 -57 -26 -50 6 8 42 -11 94 -39 106 -38 17 -100 -5 -124 -45 -28
-48 -48 -65 -124 -102 -119 -60 -182 -42 -177 51 1 18 9 22 59 28 68 8 95 25
90 58 -2 18 -12 25 -45 32 -35 7 -50 5 -90 -15 -49 -24 -76 -62 -88 -121 -7
-36 -76 -108 -103 -108 -26 0 -47 38 -63 110 -10 48 -9 57 29 158 59 158 86
292 86 439 1 108 -1 124 -20 150 -45 61 -93 36 -124 -64 -30 -97 -42 -219 -42
-435 l0 -198 -122 -142 c-175 -205 -309 -319 -463 -395 -65 -32 -87 -38 -142
-38 -79 0 -119 23 -154 88 -19 36 -22 58 -22 142 0 92 3 106 32 168 46 96 108
180 198 265 111 106 209 168 282 177 101 12 166 50 117 69 -28 11 -71 6 -136
-14 -80 -25 -115 -25 -156 0 -60 37 -76 123 -39 209 50 117 251 321 316 321
35 0 26 -51 -30 -156 -52 -99 -53 -119 -8 -112 19 2 36 25 76 98 61 110 70
167 31 194 -34 24 -97 20 -159 -11z m528 -200 c12 -44 6 -181 -12 -284 -15
-83 -73 -286 -79 -277 -1 1 1 83 6 181 8 191 31 371 49 393 17 21 28 17 36
-13z m248 -623 c-3 -5 -15 -10 -26 -10 -11 0 -17 5 -14 10 3 6 15 10 26 10 11
0 17 -4 14 -10z m1401 1 c-3 -5 -17 -11 -31 -13 -20 -4 -23 -3 -14 8 12 15 54
20 45 5z m-1076 -52 c0 -18 -4 -28 -10 -24 -5 3 -10 20 -10 36 0 18 4 28 10
24 6 -3 10 -20 10 -36z m580 0 c0 -16 -4 -29 -9 -29 -10 0 -19 40 -13 58 7 21
22 2 22 -29z m-621 -51 c24 -27 24 -28 6 -48 -23 -25 -32 -25 -45 0 -11 21 -3
98 9 83 3 -4 17 -20 30 -35z m595 -20 c12 -8 -21 -48 -39 -48 -22 0 -33 57
-19 94 5 13 10 11 27 -12 12 -15 26 -30 31 -34z"/>
<path d="M1305 3470 c3 -5 8 -10 11 -10 2 0 4 5 4 10 0 6 -5 10 -11 10 -5 0
-7 -4 -4 -10z"/>
<path d="M2935 3307 c-50 -86 -22 -106 38 -26 38 52 40 69 7 69 -12 0 -29 -16
-45 -43z"/>
<path d="M2905 2451 l0 -71 41 0 c49 0 77 26 77 71 0 40 -19 58 -73 65 l-45 6
0 -71z m79 33 c23 -23 20 -71 -5 -84 -35 -19 -49 -6 -49 50 0 43 3 50 19 50
11 0 27 -7 35 -16z"/>
<path d="M3735 2512 c-5 -4 -10 -35 -10 -70 0 -48 3 -62 15 -62 12 0 14 11 12
52 -4 79 -6 88 -17 80z"/>
<path d="M3177 2503 c-12 -12 -7 -22 8 -17 8 4 15 10 15 15 0 11 -14 12 -23 2z"/>
<path d="M3167 2472 c-25 -5 -40 -48 -26 -73 7 -15 19 -19 41 -17 17 2 33 9
36 16 2 7 -2 10 -12 6 -9 -3 -24 -3 -33 1 -15 5 -12 9 15 20 17 8 32 19 32 24
0 14 -32 28 -53 23z m27 -21 c3 -5 -1 -12 -10 -15 -22 -9 -24 -8 -24 9 0 16
25 21 34 6z"/>
<path d="M3557 2472 c-25 -5 -40 -48 -26 -73 7 -15 19 -19 41 -17 17 2 33 9
36 16 2 7 -2 10 -12 6 -9 -3 -24 -3 -33 1 -15 5 -12 9 15 20 17 8 32 19 32 24
0 14 -32 28 -53 23z m27 -21 c3 -5 -1 -12 -10 -15 -22 -9 -24 -8 -24 9 0 16
25 21 34 6z"/>
<path d="M4946 2471 c-3 -5 -14 -7 -24 -4 -15 3 -18 -3 -17 -41 0 -34 4 -46
15 -46 11 0 15 11 15 37 0 31 3 37 18 35 9 -2 17 2 17 7 0 14 -18 23 -24 12z"/>
<path d="M3335 2453 c4 -10 12 -30 17 -45 5 -16 16 -28 23 -28 7 0 18 12 23
28 5 15 13 35 17 45 4 9 3 17 -3 17 -6 0 -14 -14 -17 -32 -7 -30 -8 -31 -21
-13 -8 11 -12 25 -10 32 3 8 -3 13 -15 13 -16 0 -19 -4 -14 -17z"/>
<path d="M3882 2458 c-29 -29 -7 -78 35 -78 32 0 58 42 43 69 -12 24 -58 29
-78 9z m56 -36 c3 -27 0 -33 -14 -30 -23 4 -39 31 -31 52 12 30 42 14 45 -22z"/>
<path d="M4075 2404 c0 -55 2 -64 18 -64 14 0 17 5 12 20 -5 16 -2 20 18 20
32 0 49 22 45 57 -3 26 -7 28 -48 30 l-45 1 0 -64z m73 27 c2 -13 -1 -28 -7
-34 -17 -17 -45 15 -36 42 9 29 39 23 43 -8z"/>
<path d="M4285 2404 c0 -53 3 -64 17 -64 11 0 15 6 11 19 -4 15 1 20 23 23 34
4 49 27 40 61 -5 23 -11 26 -49 25 l-42 0 0 -64z m71 30 c8 -29 -7 -49 -30
-41 -16 6 -22 48 -9 60 14 15 33 6 39 -19z"/>
<path d="M4502 2458 c-15 -15 -16 -50 0 -66 15 -15 55 -16 64 0 5 8 2 9 -11 5
-9 -4 -24 -2 -32 5 -12 9 -9 14 17 25 18 7 30 18 28 25 -6 18 -50 22 -66 6z
m46 -10 c-7 -19 -38 -22 -38 -4 0 10 9 16 21 16 12 0 19 -5 17 -12z"/>
<path d="M4690 2436 c0 -18 6 -38 13 -44 13 -11 77 -11 77 1 0 4 0 23 0 42 0
25 -4 35 -15 35 -11 0 -14 -7 -9 -25 6 -25 -9 -55 -27 -55 -5 0 -12 18 -15 40
-8 49 -24 53 -24 6z"/>
<path d="M3637 2243 c-4 -3 -3 -11 2 -17 4 -6 16 -35 25 -63 20 -59 32 -66 47
-25 5 15 12 34 15 42 4 10 12 0 21 -28 8 -24 20 -41 25 -40 8 3 57 118 58 136
0 12 -24 -7 -26 -20 -1 -9 -8 -34 -15 -55 l-12 -38 -13 35 c-7 19 -13 45 -13
58 -1 17 -6 22 -18 20 -13 -2 -17 -11 -15 -33 2 -17 -3 -39 -11 -49 -13 -18
-15 -16 -28 32 -12 48 -25 62 -42 45z"/>
<path d="M4139 2248 c0 -2 -1 -33 -2 -70 l-2 -68 37 0 c43 0 64 26 54 66 -5
19 -13 24 -36 24 -25 0 -30 4 -30 25 0 14 -4 25 -10 25 -5 0 -10 -1 -11 -2z
m61 -73 c16 -19 3 -57 -18 -53 -18 3 -27 30 -18 54 7 18 20 18 36 -1z"/>
<path d="M3963 2199 c-27 -10 -40 -53 -22 -75 14 -17 70 -16 76 2 2 7 -8 9
-27 6 -39 -6 -39 10 0 25 17 6 30 16 30 22 0 17 -33 29 -57 20z m27 -19 c0
-12 -28 -25 -36 -17 -9 9 6 27 22 27 8 0 14 -5 14 -10z"/>
<path d="M4330 2015 c0 -8 5 -15 10 -15 6 0 10 7 10 15 0 8 -4 15 -10 15 -5 0
-10 -7 -10 -15z"/>
<path d="M4300 1985 c0 -8 5 -15 10 -15 6 0 10 7 10 15 0 8 -4 15 -10 15 -5 0
-10 -7 -10 -15z"/>
<path d="M4270 1960 c0 -5 5 -10 10 -10 6 0 10 5 10 10 0 6 -4 10 -10 10 -5 0
-10 -4 -10 -10z"/>
<path d="M4220 1915 c-7 -9 -10 -18 -7 -21 10 -11 37 5 37 21 0 19 -14 19 -30
0z"/>
<path d="M3499 1743 c-67 -65 -109 -115 -109 -127 0 -12 42 -62 108 -128 l108
-108 102 0 c90 0 102 2 112 19 5 11 10 23 10 27 0 4 -40 48 -90 98 l-90 92 81
79 c95 94 104 108 89 135 -10 18 -21 20 -112 20 l-101 0 -108 -107z m297 76
c4 -6 -41 -59 -105 -123 -98 -98 -127 -136 -104 -136 3 0 15 8 25 17 17 16 23
12 102 -63 46 -43 84 -85 85 -91 1 -10 -23 -13 -91 -13 l-93 0 -97 97 c-54 54
-98 102 -98 108 0 6 47 57 104 113 l103 102 81 0 c48 0 84 -4 88 -11z"/>
<path d="M4050 1830 c-15 -27 -6 -41 89 -135 l81 -79 -90 -92 c-50 -50 -90
-96 -90 -102 0 -6 7 -18 16 -26 12 -12 38 -16 112 -16 l97 0 108 108 c64 65
107 115 107 127 0 12 -42 63 -108 128 l-107 107 -102 0 c-92 0 -103 -2 -113
-20z"/>
<path d="M3930 1625 c-52 -52 -91 -98 -87 -102 4 -4 51 36 104 89 52 52 91 98
86 101 -5 3 -52 -36 -103 -88z"/>
<path d="M3630 1325 c-7 -9 -10 -18 -7 -22 8 -7 37 15 37 28 0 14 -16 11 -30
-6z"/>
<path d="M3585 1279 c-10 -15 3 -25 16 -12 7 7 7 13 1 17 -6 3 -14 1 -17 -5z"/>
<path d="M3555 1249 c-10 -15 3 -25 16 -12 7 7 7 13 1 17 -6 3 -14 1 -17 -5z"/>
<path d="M3520 1215 c0 -9 5 -15 11 -13 6 2 11 8 11 13 0 5 -5 11 -11 13 -6 2
-11 -4 -11 -13z"/>
<path d="M5387 606 c-3 -8 10 -29 31 -48 20 -19 151 -153 291 -296 244 -253
291 -292 291 -243 0 21 -535 548 -552 543 -5 -1 -7 1 -4 6 3 5 -6 19 -19 30
-30 26 -31 26 -38 8z"/>
<path d="M300 330 c-198 -187 -295 -286 -295 -300 0 -11 4 -21 9 -22 5 0 145
129 312 288 230 219 300 292 292 301 -6 7 -13 13 -17 13 -3 0 -139 -126 -301
-280z"/>
</g>
</svg>
